<mxfile host="app.diagrams.net" agent="Mozilla/5.0 (Macintosh; Intel Mac OS X 10_15_7) AppleWebKit/537.36 (KHTML, like Gecko) Chrome/138.0.0.0 Safari/537.36" version="28.0.3">
  <diagram name="Seite-1" id="j2rsZWHjF2LK3IaVKoLt">
    <mxGraphModel dx="1687" dy="1084" grid="1" gridSize="10" guides="1" tooltips="1" connect="1" arrows="1" fold="1" page="1" pageScale="1" pageWidth="827" pageHeight="1169" math="0" shadow="0">
      <root>
        <mxCell id="0" />
        <mxCell id="1" parent="0" />
        <mxCell id="JqThh1k-Lj8XiByJB2Hw-11" style="edgeStyle=orthogonalEdgeStyle;rounded=0;orthogonalLoop=1;jettySize=auto;html=1;dashed=1;startArrow=none;startFill=0;" parent="1" source="JqThh1k-Lj8XiByJB2Hw-1" target="JqThh1k-Lj8XiByJB2Hw-10" edge="1">
          <mxGeometry relative="1" as="geometry" />
        </mxCell>
        <mxCell id="JqThh1k-Lj8XiByJB2Hw-1" value="&lt;b&gt;TabsetsStore&lt;/b&gt;&lt;div&gt;&lt;br&gt;&lt;/div&gt;&lt;div&gt;initialize(persistence)&lt;/div&gt;" style="rounded=1;whiteSpace=wrap;html=1;fillColor=#d5e8d4;strokeColor=#82b366;" parent="1" vertex="1">
          <mxGeometry x="320" y="330" width="174" height="90" as="geometry" />
        </mxCell>
        <mxCell id="JqThh1k-Lj8XiByJB2Hw-2" value="FirebaseTabsetsPersistence" style="shape=cylinder3;whiteSpace=wrap;html=1;boundedLbl=1;backgroundOutline=1;size=15;fillColor=#fff2cc;strokeColor=#d6b656;" parent="1" vertex="1">
          <mxGeometry x="590" y="335" width="170" height="80" as="geometry" />
        </mxCell>
        <mxCell id="JqThh1k-Lj8XiByJB2Hw-3" style="edgeStyle=orthogonalEdgeStyle;rounded=0;orthogonalLoop=1;jettySize=auto;html=1;entryX=0;entryY=0.5;entryDx=0;entryDy=0;entryPerimeter=0;" parent="1" source="JqThh1k-Lj8XiByJB2Hw-1" target="JqThh1k-Lj8XiByJB2Hw-2" edge="1">
          <mxGeometry relative="1" as="geometry" />
        </mxCell>
        <mxCell id="JqThh1k-Lj8XiByJB2Hw-4" value="IndexedDbTabsetsPersistence" style="shape=cylinder3;whiteSpace=wrap;html=1;boundedLbl=1;backgroundOutline=1;size=15;fillColor=#fff2cc;strokeColor=#d6b656;" parent="1" vertex="1">
          <mxGeometry x="590" y="230" width="170" height="80" as="geometry" />
        </mxCell>
        <mxCell id="JqThh1k-Lj8XiByJB2Hw-5" style="edgeStyle=orthogonalEdgeStyle;rounded=0;orthogonalLoop=1;jettySize=auto;html=1;entryX=0;entryY=0.5;entryDx=0;entryDy=0;entryPerimeter=0;" parent="1" source="JqThh1k-Lj8XiByJB2Hw-1" target="JqThh1k-Lj8XiByJB2Hw-4" edge="1">
          <mxGeometry relative="1" as="geometry" />
        </mxCell>
        <mxCell id="JqThh1k-Lj8XiByJB2Hw-8" style="edgeStyle=orthogonalEdgeStyle;rounded=0;orthogonalLoop=1;jettySize=auto;html=1;entryX=0.5;entryY=0;entryDx=0;entryDy=0;" parent="1" source="JqThh1k-Lj8XiByJB2Hw-6" target="JqThh1k-Lj8XiByJB2Hw-1" edge="1">
          <mxGeometry relative="1" as="geometry" />
        </mxCell>
        <mxCell id="JqThh1k-Lj8XiByJB2Hw-6" value="" style="rounded=0;whiteSpace=wrap;html=1;align=center;" parent="1" vertex="1">
          <mxGeometry x="327" y="115" width="160" height="120" as="geometry" />
        </mxCell>
        <mxCell id="JqThh1k-Lj8XiByJB2Hw-7" value="AppService" style="text;html=1;align=center;verticalAlign=middle;whiteSpace=wrap;rounded=0;" parent="1" vertex="1">
          <mxGeometry x="420" y="70" width="60" height="30" as="geometry" />
        </mxCell>
        <mxCell id="JqThh1k-Lj8XiByJB2Hw-9" value="&lt;div&gt;initialize with&lt;/div&gt;useDB().tabsetsDb" style="rounded=1;whiteSpace=wrap;html=1;" parent="1" vertex="1">
          <mxGeometry x="347" y="130" width="120" height="60" as="geometry" />
        </mxCell>
        <mxCell id="JqThh1k-Lj8XiByJB2Hw-10" value="&lt;b&gt;tabsets: &lt;/b&gt;Map&amp;lt;string, Tabset&amp;gt;&lt;br&gt;&lt;br&gt;&lt;b&gt;currentTabsetId: &lt;/b&gt;string | undef&lt;div&gt;&lt;b&gt;currentTsFolderId&lt;/b&gt;: string | undef&lt;/div&gt;&lt;div&gt;&lt;b&gt;loaded&lt;/b&gt;:boolean&lt;/div&gt;&lt;div&gt;&lt;b&gt;lastUpdate&lt;/b&gt;: timestamp&lt;/div&gt;&lt;div&gt;reminderTabset: Tabset&lt;/div&gt;" style="rounded=1;whiteSpace=wrap;html=1;" parent="1" vertex="1">
          <mxGeometry x="320" y="440" width="174" height="200" as="geometry" />
        </mxCell>
        <mxCell id="JqThh1k-Lj8XiByJB2Hw-12" value="&lt;div&gt;initialize with&lt;/div&gt;IFirestoreServices" style="rounded=1;whiteSpace=wrap;html=1;" parent="1" vertex="1">
          <mxGeometry x="615" y="450" width="120" height="60" as="geometry" />
        </mxCell>
        <mxCell id="qMgNmwMlWp6sE25Pp_-k-2" value="useTabsetsService()&lt;div&gt;&lt;br&gt;&lt;/div&gt;&lt;div&gt;saveOrReplaceFromBrowserTabs&lt;/div&gt;" style="rounded=0;whiteSpace=wrap;html=1;align=center;" vertex="1" parent="1">
          <mxGeometry x="60" y="310" width="220" height="120" as="geometry" />
        </mxCell>
        <mxCell id="qMgNmwMlWp6sE25Pp_-k-3" value="TabsetsService2.ts" style="text;html=1;align=center;verticalAlign=middle;whiteSpace=wrap;rounded=0;" vertex="1" parent="1">
          <mxGeometry x="110" y="270" width="110" height="30" as="geometry" />
        </mxCell>
        <mxCell id="qMgNmwMlWp6sE25Pp_-k-5" value="LocalStorageTabsetsPersistence&lt;div&gt;???&lt;/div&gt;" style="shape=cylinder3;whiteSpace=wrap;html=1;boundedLbl=1;backgroundOutline=1;size=15;fillColor=#fff2cc;strokeColor=#d6b656;" vertex="1" parent="1">
          <mxGeometry x="590" y="120" width="170" height="80" as="geometry" />
        </mxCell>
      </root>
    </mxGraphModel>
  </diagram>
</mxfile>
